# xmcd
#
# Track frame offsets:
#	150
#	20168
#	58575
#	92222
#	123717
#	151447
#	178914
#	210039
#
# Disc length: 3098 seconds
#
# Revision: 0
# Processed by: cddbd v1.5.2PL0 Copyright (c) Steve Scherf et al.
# Submitted via: audiograbber 1.83.01
#
DISCID=6c0c1808
DTITLE=Grateful Dead - 93-09-08 Richfield Coliseum, Richfield OH
DYEAR=1900
DGENRE=
TTITLE0=Tuning
TTITLE1=Feel Like A Stranger
TTITLE2=Peggy-O
TTITLE3=Wang Dang Doodle
TTITLE4=Brown Eyed Women
TTITLE5=When I Paint My Masterpiece
TTITLE6=Liberty
TTITLE7=Johnny B Goode
EXTD=
EXTT0=
EXTT1=
EXTT2=
EXTT3=
EXTT4=
EXTT5=
EXTT6=
EXTT7=
PLAYORDER=
